#N canvas 866 87 620 575 10;
#X declare -lib mrpeach;
#X obj 94 47 import mrpeach;
#X obj 63 96 udpreceive 3333;
#X obj 63 121 unpackOSC;
#X obj 62 181 route set;
#X obj 61 213 unpack f f f f f;
#X obj 74 244 nbx 5 14 -1e+37 1e+37 0 0 empty empty empty 0 -8 0 10
-262144 -1 -1 0.908831 256;
#X obj 208 134 print;
#X obj 63 160 route /tuio/2Dcur;
#X obj 132 244 nbx 5 14 -1e+37 1e+37 0 0 empty empty empty 0 -8 0 10
-262144 -1 -1 0.882026 256;
#X obj 380 246 timer;
#X obj 380 279 nbx 5 14 -1e+37 1e+37 0 0 empty empty empty 0 -8 0 10
-262144 -1 -1 76.9161 256;
#X obj 379 211 t b b;
#X obj 294 254 steady;
#X obj 46 340 timeroll;
#X obj 261 335 timeroll;
#X connect 1 0 2 0;
#X connect 2 0 7 0;
#X connect 2 0 6 0;
#X connect 3 0 4 0;
#X connect 3 0 11 0;
#X connect 4 1 5 0;
#X connect 4 2 8 0;
#X connect 5 0 13 0;
#X connect 7 0 3 0;
#X connect 8 0 14 0;
#X connect 9 0 10 0;
#X connect 11 0 9 0;
#X connect 11 1 9 1;
